<svg version="1.1" id="Layer_1" xmlns="http://www.w3.org/2000/svg" xmlns:xlink="http://www.w3.org/1999/xlink" x="0px" y="0px"
	 width="100%" viewBox="0 0 368 688" enable-background="new 0 0 368 688" xml:space="preserve">
<path fill="#000000" opacity="1.000000" stroke="none" 
	d="
M13.000000,689.000000 
	C9.001646,689.000000 5.003292,689.000000 1.003704,689.000000 
	C1.002469,459.762695 1.002469,230.525375 1.002469,1.000000 
	C117.355820,1.000000 233.711868,1.000000 350.262207,1.133910 
	C348.382507,1.911090 346.870667,2.686388 347.756653,5.474178 
	C348.979034,9.320600 349.013123,13.194945 347.824524,17.217978 
	C346.834442,20.569204 348.795929,23.364231 351.292938,25.490587 
	C353.840332,27.659849 355.354553,24.863810 357.362457,24.052353 
	C361.152557,22.520636 365.116577,20.762758 369.000000,24.000000 
	C369.000000,245.666672 369.000000,467.333344 369.000000,689.000000 
	C364.938965,689.000000 360.941589,689.000000 356.346375,688.673889 
	C347.029572,673.773926 337.677490,659.580078 329.639313,644.596497 
	C326.469635,638.687927 323.115570,632.560364 322.848511,625.970337 
	C322.005981,605.180908 319.838470,584.493469 318.725098,563.738220 
	C317.811249,546.701965 311.782715,531.334045 304.922943,516.122498 
	C304.605408,515.418396 303.920502,514.880005 303.277466,514.109619 
	C302.393646,514.558350 301.583008,514.808411 300.971680,515.304199 
	C287.675903,526.088623 272.568085,533.880798 257.444733,541.631714 
	C248.091949,546.425049 238.270645,550.132141 228.415329,553.740601 
	C225.651276,554.752625 223.333878,554.110779 222.140182,551.412048 
	C220.918991,548.651245 222.204941,546.555664 224.781403,545.275818 
	C226.119247,544.611328 227.538589,544.103027 228.941498,543.578674 
	C239.718994,539.550415 250.356247,535.169983 260.417938,529.575562 
	C272.483704,522.866821 284.951721,516.784729 295.404053,507.471252 
	C299.280945,504.016785 300.419983,500.306824 299.384125,495.092621 
	C296.121887,478.671448 289.005951,463.492798 284.584351,447.463196 
	C283.591400,443.863495 281.449158,443.835205 278.479340,445.076050 
	C269.387268,448.875092 260.768280,453.568787 252.254272,458.492523 
	C235.125473,468.398224 220.805481,482.019897 205.211548,493.954376 
	C184.313354,509.948364 160.214920,516.412964 134.428574,517.862549 
	C131.582382,518.022461 129.479538,516.568542 129.298187,513.562500 
	C129.134247,510.845154 130.855881,509.207825 133.462311,508.793427 
	C136.580750,508.297638 139.731598,507.982544 142.877609,507.687134 
	C163.553085,505.745544 182.486969,499.149567 199.193985,486.623810 
	C200.106216,485.939850 201.736206,485.494202 201.074554,483.738708 
	C199.583450,483.091370 198.380219,483.934418 197.131775,484.251251 
	C170.292862,491.063080 143.549484,491.643616 116.852051,483.385742 
	C103.917366,479.384857 91.888527,473.204407 79.345032,468.272736 
	C67.729805,463.705994 66.536446,464.172699 60.368423,474.894836 
	C52.681683,488.257050 52.776230,489.137360 64.424080,499.365936 
	C75.614998,509.193176 88.181976,517.128235 100.855507,524.801697 
	C127.257339,540.787231 142.265915,565.122864 152.169189,593.350220 
	C153.116913,596.051514 153.132675,598.891968 149.868591,600.040344 
	C146.814529,601.114868 144.777283,599.449036 143.605255,596.626770 
	C142.327850,593.550659 140.973526,590.503113 139.799591,587.387817 
	C130.925476,563.838440 116.295029,545.092163 94.555702,531.958069 
	C85.301048,526.366760 76.549255,519.944946 67.546417,513.934326 
	C62.036427,510.255615 57.303074,505.592316 52.332294,501.433014 
	C50.525158,502.681000 50.551388,504.234070 50.217072,505.676636 
	C45.090935,527.796082 38.303822,549.336548 27.671698,569.506958 
	C26.092064,572.503662 26.030142,575.619568 26.555866,578.751648 
	C27.545046,584.644958 28.625984,590.530212 29.911758,596.365173 
	C35.687103,622.574707 34.668030,647.853394 20.770924,671.754272 
	C17.629923,677.156372 14.538668,682.781006 13.000000,689.000000 
M217.187943,181.454102 
	C205.816864,177.665283 194.550415,173.511658 183.039581,170.210129 
	C174.738739,167.829285 171.263672,162.172852 169.758743,154.480484 
	C169.375961,152.523941 168.817444,150.529205 168.887589,148.571655 
	C169.036728,144.410828 166.554321,143.121948 163.115570,142.504425 
	C151.927094,140.495224 141.964035,135.620773 132.665253,129.273407 
	C130.890564,128.061996 129.165085,126.668839 127.754089,125.063202 
	C126.148674,123.236351 126.217995,121.029488 127.800301,119.133011 
	C129.301758,117.333450 131.336487,117.218163 133.223541,118.325310 
	C135.660400,119.755035 137.870575,121.567017 140.283951,123.041573 
	C149.149017,128.458084 158.299713,133.044983 168.962997,133.827316 
	C175.092697,134.277008 179.155365,132.046738 181.539841,126.310799 
	C184.671265,118.778160 188.238693,111.424965 191.300705,103.865814 
	C194.116486,96.914513 196.090027,89.692856 196.630112,82.147812 
	C196.881073,78.641769 195.879120,76.353912 191.830612,76.138374 
	C189.703873,76.025146 187.579620,75.364769 185.512589,74.754005 
	C182.790131,73.949570 181.193237,72.139870 181.764938,69.160828 
	C182.371216,66.001740 184.933319,64.986603 187.452805,65.884880 
	C193.233337,67.945808 194.905426,65.059479 196.508209,60.191074 
	C200.346619,48.531918 191.576813,36.526302 179.391617,37.471607 
	C176.362198,37.706631 173.314407,37.945431 170.492126,36.920998 
	C153.808609,30.865204 140.891266,37.029423 130.084534,49.453194 
	C123.074364,57.512302 116.688019,66.065468 113.329132,76.442139 
	C112.565910,78.799950 110.895653,80.177635 108.472717,79.849075 
	C105.766502,79.482109 104.629845,77.542358 104.656036,74.830452 
	C104.686081,71.720169 105.918846,68.996056 107.266594,66.319481 
	C111.945366,57.027607 117.937660,48.624268 125.048264,41.068016 
	C138.352432,26.930021 154.265244,21.859900 173.078201,28.032400 
	C176.393723,29.120224 179.312866,27.727983 182.416504,27.557493 
	C183.801025,27.481438 185.139893,26.915037 185.239563,25.275839 
	C185.335205,23.702761 184.092529,22.984417 182.847702,22.412781 
	C180.765747,21.456724 178.265884,21.427191 176.659592,19.417089 
	C170.027863,11.118231 160.972641,9.003321 151.082703,10.241491 
	C142.267166,11.345155 133.710037,12.536953 124.609459,11.667493 
	C111.011024,10.368313 101.267540,18.800980 92.552742,28.245356 
	C88.176529,32.987934 86.083412,38.273285 87.831032,44.696953 
	C88.624443,47.613266 87.758408,49.801262 85.455132,51.744205 
	C77.138397,58.759819 76.405746,65.646072 82.952751,74.658562 
	C84.373810,76.614761 85.380600,78.464043 84.710098,81.081001 
	C83.572296,85.521805 85.331955,88.474518 89.807617,89.844719 
	C92.784058,90.755943 93.963303,92.822098 93.490685,95.996117 
	C92.359100,103.595665 92.711273,104.510307 99.592232,108.074608 
	C105.976509,111.381638 110.256973,116.414024 113.193787,122.827194 
	C117.214722,131.607788 118.879105,140.950836 119.014557,150.458420 
	C119.185303,162.443115 115.133392,172.336716 104.381851,179.257401 
	C93.709282,186.127258 82.566971,192.084351 71.497780,198.213882 
	C61.298809,203.861526 51.000874,209.332733 42.357071,217.380569 
	C35.487438,223.776550 32.394779,231.445160 32.266308,240.900772 
	C31.954079,263.880859 31.008390,286.851593 30.525572,309.830444 
	C30.270090,321.989502 30.397112,334.157990 30.467323,346.321533 
	C30.484838,349.355621 30.905090,352.378662 34.440636,353.657654 
	C45.032219,357.489105 56.029621,359.092529 67.215469,359.441010 
	C71.606682,359.577789 73.899452,357.421112 74.767807,352.694977 
	C77.336784,338.713135 78.576195,324.693848 77.940750,310.490967 
	C77.799065,307.324005 78.517555,304.149017 82.410286,303.864410 
	C86.007896,303.601379 86.963264,306.357117 87.550056,309.398224 
	C91.487289,329.803070 96.241142,350.025818 101.323891,370.171844 
	C105.625900,387.223389 103.879982,402.910828 92.690086,417.360687 
	C84.864029,427.466675 80.483383,439.427307 77.777863,451.966522 
	C77.001686,455.563873 77.886276,457.483063 81.380081,458.889374 
	C89.873505,462.308136 98.206490,466.123230 106.636162,469.703125 
	C133.238464,481.000549 160.629227,483.340149 188.719955,476.568695 
	C203.971985,472.892059 219.069351,468.397095 232.409698,459.969208 
	C245.245865,451.859802 257.962555,443.604248 271.985809,437.717529 
	C276.476379,435.832489 276.806885,433.455658 274.975372,429.684692 
	C271.557190,422.646912 268.281464,415.538788 264.790253,408.537842 
	C258.991516,396.909576 253.105026,385.319183 249.798904,372.663208 
	C245.691055,356.938080 243.821030,340.966370 245.107437,324.717865 
	C245.404617,320.963989 244.084885,319.713715 240.507996,320.763062 
	C239.390457,321.090912 238.262497,321.383118 237.141922,321.700897 
	C224.956711,325.156342 213.421875,322.585327 202.123306,317.901642 
	C199.234344,316.704041 197.836670,314.488922 199.013672,311.520996 
	C200.261978,308.373230 202.854233,308.443451 205.721725,309.414124 
	C209.813354,310.799194 213.919754,312.252533 218.132111,313.149597 
	C235.734772,316.898193 251.888000,307.435394 257.409851,290.362610 
	C260.396698,281.127747 260.145447,271.843781 256.504456,263.005585 
	C253.866592,256.602448 254.400436,250.414185 255.263885,243.968414 
	C256.743835,232.920288 259.259583,222.070648 261.342560,211.137909 
	C263.263672,201.054718 261.935089,198.546188 252.584625,194.545685 
	C241.247620,189.695251 229.568634,185.765228 217.187943,181.454102 
z"/>
<path fill="#000000" opacity="1.000000" stroke="none" 
	d="
M222.466125,689.000000 
	C229.763474,682.698547 235.947006,674.923950 240.219589,666.068542 
	C248.442902,649.024780 261.815887,638.668884 279.415009,632.885071 
	C286.374054,630.598083 293.295776,628.240662 300.392914,626.400635 
	C303.538269,625.585205 306.224884,625.708435 307.162689,629.283936 
	C308.070068,632.743225 306.009949,634.496765 302.839569,635.343445 
	C291.236115,638.442505 279.923126,642.291809 269.179810,647.777039 
	C262.915039,650.975647 257.975128,655.292419 254.308884,661.373047 
	C248.813751,670.486938 242.912811,679.356201 237.092224,688.664734 
	C232.310745,689.000000 227.621490,689.000000 222.466125,689.000000 
z"/>
<path fill="#000000" opacity="1.000000" stroke="none" 
	d="
M106.505875,638.366577 
	C119.801331,643.307312 132.210342,649.464966 145.715347,652.788574 
	C158.049393,655.823975 170.448410,657.883911 183.179260,657.655701 
	C185.343002,657.616943 187.513992,657.593933 189.671997,657.723816 
	C192.302979,657.882263 194.087234,659.138672 194.280960,661.981201 
	C194.478989,664.886719 192.725555,666.303772 190.180618,666.722717 
	C187.894897,667.098999 185.543930,667.271118 183.226624,667.233215 
	C161.709290,666.881836 140.859039,662.949524 121.106071,654.368774 
	C101.919296,646.034058 82.328751,639.411865 61.383106,637.481079 
	C58.146942,637.182800 55.597919,636.173645 55.839962,632.566284 
	C56.114723,628.471130 59.252285,628.367493 62.492931,628.538818 
	C77.588280,629.336609 92.002930,633.149170 106.505875,638.366577 
z"/>
<path fill="#000000" opacity="1.000000" stroke="none" 
	d="
M143.240997,345.623474 
	C120.462532,349.436401 99.433113,337.093231 93.578369,316.923553 
	C92.603416,313.564819 92.204842,310.336121 96.156700,309.060913 
	C99.968651,307.830811 101.415733,310.734924 102.379494,313.828125 
	C106.610817,327.408661 116.236191,334.945984 129.955475,336.459015 
	C144.987350,338.116821 158.106400,334.179169 166.155685,319.926941 
	C167.707947,317.178467 169.622787,315.105347 172.904434,316.825714 
	C176.483276,318.701935 175.659027,321.769470 174.143723,324.587097 
	C167.588043,336.776947 157.124008,343.338409 143.240997,345.623474 
z"/>
<path fill="#000000" opacity="1.000000" stroke="none" 
	d="
M153.679550,204.889496 
	C149.533813,203.819565 146.151382,202.072876 142.956360,199.971161 
	C140.390366,198.283218 138.547104,195.932373 140.291656,192.889145 
	C142.129486,189.683212 144.954285,190.505188 147.636093,192.081177 
	C149.063644,192.920105 150.513794,193.739029 152.018372,194.425217 
	C157.832031,197.076645 159.825043,196.196686 161.856644,190.175156 
	C162.788269,187.413910 164.307236,185.186081 167.603500,186.185577 
	C170.582535,187.088867 171.470352,189.465042 170.959671,192.510651 
	C169.397217,201.828796 163.784058,206.021103 153.679550,204.889496 
z"/>
<path fill="#000000" opacity="1.000000" stroke="none" 
	d="
M146.596100,68.903976 
	C152.135788,68.541862 157.324585,69.427673 162.268860,67.111359 
	C164.513397,66.059830 166.592865,67.203514 167.733444,69.334251 
	C168.930420,71.570358 168.058517,73.516113 166.249985,75.091087 
	C162.621323,78.251114 149.830658,79.634872 145.566162,77.339676 
	C141.718124,75.268631 141.949295,72.040947 146.596100,68.903976 
z"/>
<path fill="#000000" opacity="1.000000" stroke="none" 
	d="
M195.472549,426.673553 
	C198.256989,431.247711 198.237900,435.527527 195.512665,439.639923 
	C193.867203,442.122925 191.386108,443.041046 188.528885,441.995850 
	C184.663071,440.581635 183.157379,434.023682 185.490784,429.274292 
	C187.635834,424.908325 190.681900,423.996246 195.472549,426.673553 
z"/>
</svg>